{
	"asset":{
		"generator":"Khronos glTF Blender I/O v4.4.56",
		"version":"2.0"
	},
	"scene":0,
	"scenes":[
		{
			"name":"Scene",
			"nodes":[
				2
			]
		}
	],
	"nodes":[
		{
			"mesh":0,
			"name":"SmallLock",
			"translation":[
				-0.2223339080810547,
				2.9221620559692383,
				-0.5659799575805664
			]
		},
		{
			"mesh":1,
			"name":"TopLock",
			"translation":[
				0,
				4.853028297424316,
				0.6222028732299805
			]
		},
		{
			"children":[
				0,
				1
			],
			"mesh":2,
			"name":"Body",
			"scale":[
				8,
				8,
				8
			]
		}
	],
	"animations":[
		{
			"channels":[
				{
					"sampler":0,
					"target":{
						"node":0,
						"path":"translation"
					}
				},
				{
					"sampler":1,
					"target":{
						"node":0,
						"path":"rotation"
					}
				},
				{
					"sampler":2,
					"target":{
						"node":0,
						"path":"scale"
					}
				}
			],
			"name":"SmallLockAction",
			"samplers":[
				{
					"input":12,
					"interpolation":"STEP",
					"output":13
				},
				{
					"input":14,
					"interpolation":"LINEAR",
					"output":15
				},
				{
					"input":12,
					"interpolation":"STEP",
					"output":16
				}
			]
		},
		{
			"channels":[
				{
					"sampler":0,
					"target":{
						"node":1,
						"path":"translation"
					}
				},
				{
					"sampler":1,
					"target":{
						"node":1,
						"path":"rotation"
					}
				},
				{
					"sampler":2,
					"target":{
						"node":1,
						"path":"scale"
					}
				}
			],
			"name":"TopLockAction",
			"samplers":[
				{
					"input":12,
					"interpolation":"STEP",
					"output":17
				},
				{
					"input":14,
					"interpolation":"LINEAR",
					"output":18
				},
				{
					"input":12,
					"interpolation":"STEP",
					"output":19
				}
			]
		}
	],
	"materials":[
		{
			"doubleSided":true,
			"name":"Material",
			"normalTexture":{
				"index":0
			},
			"pbrMetallicRoughness":{
				"baseColorTexture":{
					"index":1
				},
				"metallicRoughnessTexture":{
					"index":2
				}
			}
		}
	],
	"meshes":[
		{
			"name":"Sphere.002",
			"primitives":[
				{
					"attributes":{
						"POSITION":0,
						"NORMAL":1,
						"TEXCOORD_0":2
					},
					"indices":3,
					"material":0
				}
			]
		},
		{
			"name":"Sphere.001",
			"primitives":[
				{
					"attributes":{
						"POSITION":4,
						"NORMAL":5,
						"TEXCOORD_0":6
					},
					"indices":7,
					"material":0
				}
			]
		},
		{
			"name":"Sphere",
			"primitives":[
				{
					"attributes":{
						"POSITION":8,
						"NORMAL":9,
						"TEXCOORD_0":10
					},
					"indices":11,
					"material":0
				}
			]
		}
	],
	"textures":[
		{
			"sampler":0,
			"source":0
		},
		{
			"sampler":0,
			"source":1
		},
		{
			"sampler":0,
			"source":2
		}
	],
	"images":[
		{
			"mimeType":"image/png",
			"name":"NP",
			"uri":"NP.png"
		},
		{
			"mimeType":"image/png",
			"name":"CP",
			"uri":"CP.png"
		},
		{
			"mimeType":"image/png",
			"name":"MP-RP",
			"uri":"MP-RP.png"
		}
	],
	"accessors":[
		{
			"bufferView":0,
			"componentType":5126,
			"count":146,
			"max":[
				0.44466686248779297,
				0.22233343124389648,
				0
			],
			"min":[
				0,
				-0.2223339080810547,
				-0.11630821228027344
			],
			"type":"VEC3"
		},
		{
			"bufferView":1,
			"componentType":5126,
			"count":146,
			"type":"VEC3"
		},
		{
			"bufferView":2,
			"componentType":5126,
			"count":146,
			"type":"VEC2"
		},
		{
			"bufferView":3,
			"componentType":5123,
			"count":480,
			"type":"SCALAR"
		},
		{
			"bufferView":4,
			"componentType":5126,
			"count":948,
			"max":[
				0.6222038269042969,
				0.5134553909301758,
				0
			],
			"min":[
				-0.6222019195556641,
				0,
				-1.244405746459961
			],
			"type":"VEC3"
		},
		{
			"bufferView":5,
			"componentType":5126,
			"count":948,
			"type":"VEC3"
		},
		{
			"bufferView":6,
			"componentType":5126,
			"count":948,
			"type":"VEC2"
		},
		{
			"bufferView":7,
			"componentType":5123,
			"count":3168,
			"type":"SCALAR"
		},
		{
			"bufferView":8,
			"componentType":5126,
			"count":9245,
			"max":[
				1.2947015762329102,
				4.853028297424316,
				1.0278596878051758
			],
			"min":[
				-1.2947015762329102,
				0,
				-1.0278596878051758
			],
			"type":"VEC3"
		},
		{
			"bufferView":9,
			"componentType":5126,
			"count":9245,
			"type":"VEC3"
		},
		{
			"bufferView":10,
			"componentType":5126,
			"count":9245,
			"type":"VEC2"
		},
		{
			"bufferView":11,
			"componentType":5123,
			"count":25650,
			"type":"SCALAR"
		},
		{
			"bufferView":12,
			"componentType":5126,
			"count":2,
			"max":[
				0.8333333333333334
			],
			"min":[
				0.041666666666666664
			],
			"type":"SCALAR"
		},
		{
			"bufferView":13,
			"componentType":5126,
			"count":2,
			"type":"VEC3"
		},
		{
			"bufferView":14,
			"componentType":5126,
			"count":20,
			"max":[
				0.8333333333333334
			],
			"min":[
				0.041666666666666664
			],
			"type":"SCALAR"
		},
		{
			"bufferView":15,
			"componentType":5126,
			"count":20,
			"type":"VEC4"
		},
		{
			"bufferView":16,
			"componentType":5126,
			"count":2,
			"type":"VEC3"
		},
		{
			"bufferView":17,
			"componentType":5126,
			"count":2,
			"type":"VEC3"
		},
		{
			"bufferView":18,
			"componentType":5126,
			"count":20,
			"type":"VEC4"
		},
		{
			"bufferView":19,
			"componentType":5126,
			"count":2,
			"type":"VEC3"
		}
	],
	"bufferViews":[
		{
			"buffer":0,
			"byteLength":1752,
			"byteOffset":0,
			"target":34962
		},
		{
			"buffer":0,
			"byteLength":1752,
			"byteOffset":1752,
			"target":34962
		},
		{
			"buffer":0,
			"byteLength":1168,
			"byteOffset":3504,
			"target":34962
		},
		{
			"buffer":0,
			"byteLength":960,
			"byteOffset":4672,
			"target":34963
		},
		{
			"buffer":0,
			"byteLength":11376,
			"byteOffset":5632,
			"target":34962
		},
		{
			"buffer":0,
			"byteLength":11376,
			"byteOffset":17008,
			"target":34962
		},
		{
			"buffer":0,
			"byteLength":7584,
			"byteOffset":28384,
			"target":34962
		},
		{
			"buffer":0,
			"byteLength":6336,
			"byteOffset":35968,
			"target":34963
		},
		{
			"buffer":0,
			"byteLength":110940,
			"byteOffset":42304,
			"target":34962
		},
		{
			"buffer":0,
			"byteLength":110940,
			"byteOffset":153244,
			"target":34962
		},
		{
			"buffer":0,
			"byteLength":73960,
			"byteOffset":264184,
			"target":34962
		},
		{
			"buffer":0,
			"byteLength":51300,
			"byteOffset":338144,
			"target":34963
		},
		{
			"buffer":0,
			"byteLength":8,
			"byteOffset":389444
		},
		{
			"buffer":0,
			"byteLength":24,
			"byteOffset":389452
		},
		{
			"buffer":0,
			"byteLength":80,
			"byteOffset":389476
		},
		{
			"buffer":0,
			"byteLength":320,
			"byteOffset":389556
		},
		{
			"buffer":0,
			"byteLength":24,
			"byteOffset":389876
		},
		{
			"buffer":0,
			"byteLength":24,
			"byteOffset":389900
		},
		{
			"buffer":0,
			"byteLength":320,
			"byteOffset":389924
		},
		{
			"buffer":0,
			"byteLength":24,
			"byteOffset":390244
		}
	],
	"samplers":[
		{
			"magFilter":9729,
			"minFilter":9987
		}
	],
	"buffers":[
		{
			"byteLength":390268,
			"uri":"Sejong%20Pharmatech_20250424.bin"
		}
	]
}
