{
	"asset":{
		"generator":"Khronos glTF Blender I/O v4.4.56",
		"version":"2.0"
	},
	"scene":0,
	"scenes":[
		{
			"name":"Scene",
			"nodes":[
				0,
				1,
				2
			]
		}
	],
	"nodes":[
		{
			"mesh":0,
			"name":"TopLock",
			"translation":[
				-7.62939453125e-06,
				38.82422637939453,
				4.977622985839844
			]
		},
		{
			"mesh":1,
			"name":"SmallLock",
			"translation":[
				-1.7786712646484375,
				23.377296447753906,
				-4.527839660644531
			]
		},
		{
			"mesh":2,
			"name":"Body"
		}
	],
	"animations":[
		{
			"channels":[
				{
					"sampler":0,
					"target":{
						"node":0,
						"path":"rotation"
					}
				}
			],
			"name":"TopLockAction.001",
			"samplers":[
				{
					"input":12,
					"interpolation":"LINEAR",
					"output":13
				}
			]
		},
		{
			"channels":[
				{
					"sampler":0,
					"target":{
						"node":1,
						"path":"rotation"
					}
				}
			],
			"name":"SmallLockAction.001",
			"samplers":[
				{
					"input":12,
					"interpolation":"LINEAR",
					"output":14
				}
			]
		}
	],
	"materials":[
		{
			"doubleSided":true,
			"name":"Material",
			"normalTexture":{
				"index":0
			},
			"pbrMetallicRoughness":{
				"baseColorTexture":{
					"index":1
				},
				"metallicRoughnessTexture":{
					"index":2
				}
			}
		}
	],
	"meshes":[
		{
			"name":"Sphere.001",
			"primitives":[
				{
					"attributes":{
						"POSITION":0,
						"NORMAL":1,
						"TEXCOORD_0":2
					},
					"indices":3,
					"material":0
				}
			]
		},
		{
			"name":"Sphere.002",
			"primitives":[
				{
					"attributes":{
						"POSITION":4,
						"NORMAL":5,
						"TEXCOORD_0":6
					},
					"indices":7,
					"material":0
				}
			]
		},
		{
			"name":"Sphere",
			"primitives":[
				{
					"attributes":{
						"POSITION":8,
						"NORMAL":9,
						"TEXCOORD_0":10
					},
					"indices":11,
					"material":0
				}
			]
		}
	],
	"textures":[
		{
			"sampler":0,
			"source":0
		},
		{
			"sampler":0,
			"source":1
		},
		{
			"sampler":0,
			"source":2
		}
	],
	"images":[
		{
			"mimeType":"image/png",
			"name":"Sejong Pharmatech5_normal",
			"uri":"Sejong%20Pharmatech5_normal.png"
		},
		{
			"mimeType":"image/png",
			"name":"Sejong Pharmatech5_BaseColor",
			"uri":"Sejong%20Pharmatech5_BaseColor.png"
		},
		{
			"mimeType":"image/png",
			"name":"Sejong Pharmatech5_occlusionRoughnessMetallic",
			"uri":"Sejong%20Pharmatech5_occlusionRoughnessMetallic.png"
		}
	],
	"accessors":[
		{
			"bufferView":0,
			"componentType":5126,
			"count":948,
			"max":[
				4.977630615234375,
				4.107643127441406,
				0
			],
			"min":[
				-4.9776153564453125,
				0,
				-9.955245971679688
			],
			"type":"VEC3"
		},
		{
			"bufferView":1,
			"componentType":5126,
			"count":948,
			"type":"VEC3"
		},
		{
			"bufferView":2,
			"componentType":5126,
			"count":948,
			"type":"VEC2"
		},
		{
			"bufferView":3,
			"componentType":5123,
			"count":3168,
			"type":"SCALAR"
		},
		{
			"bufferView":4,
			"componentType":5126,
			"count":146,
			"max":[
				3.5573348999023438,
				1.7786674499511719,
				0
			],
			"min":[
				0,
				-1.7786712646484375,
				-0.9304656982421875
			],
			"type":"VEC3"
		},
		{
			"bufferView":5,
			"componentType":5126,
			"count":146,
			"type":"VEC3"
		},
		{
			"bufferView":6,
			"componentType":5126,
			"count":146,
			"type":"VEC2"
		},
		{
			"bufferView":7,
			"componentType":5123,
			"count":480,
			"type":"SCALAR"
		},
		{
			"bufferView":8,
			"componentType":5126,
			"count":9245,
			"max":[
				10.357612609863281,
				38.82422637939453,
				8.222877502441406
			],
			"min":[
				-10.357612609863281,
				0,
				-8.222877502441406
			],
			"type":"VEC3"
		},
		{
			"bufferView":9,
			"componentType":5126,
			"count":9245,
			"type":"VEC3"
		},
		{
			"bufferView":10,
			"componentType":5126,
			"count":9245,
			"type":"VEC2"
		},
		{
			"bufferView":11,
			"componentType":5123,
			"count":25650,
			"type":"SCALAR"
		},
		{
			"bufferView":12,
			"componentType":5126,
			"count":20,
			"max":[
				0.8333333333333334
			],
			"min":[
				0.041666666666666664
			],
			"type":"SCALAR"
		},
		{
			"bufferView":13,
			"componentType":5126,
			"count":20,
			"type":"VEC4"
		},
		{
			"bufferView":14,
			"componentType":5126,
			"count":20,
			"type":"VEC4"
		}
	],
	"bufferViews":[
		{
			"buffer":0,
			"byteLength":11376,
			"byteOffset":0,
			"target":34962
		},
		{
			"buffer":0,
			"byteLength":11376,
			"byteOffset":11376,
			"target":34962
		},
		{
			"buffer":0,
			"byteLength":7584,
			"byteOffset":22752,
			"target":34962
		},
		{
			"buffer":0,
			"byteLength":6336,
			"byteOffset":30336,
			"target":34963
		},
		{
			"buffer":0,
			"byteLength":1752,
			"byteOffset":36672,
			"target":34962
		},
		{
			"buffer":0,
			"byteLength":1752,
			"byteOffset":38424,
			"target":34962
		},
		{
			"buffer":0,
			"byteLength":1168,
			"byteOffset":40176,
			"target":34962
		},
		{
			"buffer":0,
			"byteLength":960,
			"byteOffset":41344,
			"target":34963
		},
		{
			"buffer":0,
			"byteLength":110940,
			"byteOffset":42304,
			"target":34962
		},
		{
			"buffer":0,
			"byteLength":110940,
			"byteOffset":153244,
			"target":34962
		},
		{
			"buffer":0,
			"byteLength":73960,
			"byteOffset":264184,
			"target":34962
		},
		{
			"buffer":0,
			"byteLength":51300,
			"byteOffset":338144,
			"target":34963
		},
		{
			"buffer":0,
			"byteLength":80,
			"byteOffset":389444
		},
		{
			"buffer":0,
			"byteLength":320,
			"byteOffset":389524
		},
		{
			"buffer":0,
			"byteLength":320,
			"byteOffset":389844
		}
	],
	"samplers":[
		{
			"magFilter":9729,
			"minFilter":9987
		}
	],
	"buffers":[
		{
			"byteLength":390164,
			"uri":"Sejong%20Pharmatech_20250424_3.bin"
		}
	]
}
