{
	"asset":{
		"generator":"Khronos glTF Blender I/O v4.4.56",
		"version":"2.0"
	},
	"scene":0,
	"scenes":[
		{
			"name":"Scene",
			"nodes":[
				4
			]
		}
	],
	"nodes":[
		{
			"mesh":0,
			"name":"Pressure Gauge_1",
			"translation":[
				3.19419264793396,
				40.646610260009766,
				-4.091764450073242
			]
		},
		{
			"mesh":1,
			"name":"Water Pipe Valve_1",
			"translation":[
				1.1652605533599854,
				40.75142288208008,
				4.281375885009766
			]
		},
		{
			"mesh":2,
			"name":"Water Pipe Valve_2",
			"translation":[
				-3.3577382564544678,
				40.67759704589844,
				-3.3312149047851562
			]
		},
		{
			"mesh":3,
			"name":"Water Pipe Valve_3",
			"translation":[
				-1.656907558441162,
				40.3183479309082,
				-5.291286468505859
			]
		},
		{
			"children":[
				0,
				1,
				2,
				3
			],
			"mesh":4,
			"name":"Reactor3"
		}
	],
	"materials":[
		{
			"doubleSided":true,
			"name":"Water Pipe Valve",
			"pbrMetallicRoughness":{
				"baseColorFactor":[
					0.800000011920929,
					0.800000011920929,
					0.800000011920929,
					1
				],
				"metallicFactor":0,
				"roughnessFactor":0.5
			}
		}
	],
	"meshes":[
		{
			"name":"Reactor3.002",
			"primitives":[
				{
					"attributes":{
						"POSITION":0,
						"NORMAL":1,
						"TEXCOORD_0":2
					},
					"indices":3,
					"material":0
				}
			]
		},
		{
			"name":"Reactor3.004",
			"primitives":[
				{
					"attributes":{
						"POSITION":4,
						"NORMAL":5,
						"TEXCOORD_0":6
					},
					"indices":7,
					"material":0
				}
			]
		},
		{
			"name":"Reactor3.001",
			"primitives":[
				{
					"attributes":{
						"POSITION":8,
						"NORMAL":9,
						"TEXCOORD_0":10
					},
					"indices":7,
					"material":0
				}
			]
		},
		{
			"name":"Reactor3.003",
			"primitives":[
				{
					"attributes":{
						"POSITION":11,
						"NORMAL":12,
						"TEXCOORD_0":13
					},
					"indices":7,
					"material":0
				}
			]
		},
		{
			"name":"Reactor3",
			"primitives":[
				{
					"attributes":{
						"POSITION":14,
						"NORMAL":15,
						"TEXCOORD_0":16
					},
					"indices":17,
					"material":0
				}
			]
		}
	],
	"accessors":[
		{
			"bufferView":0,
			"componentType":5126,
			"count":746,
			"max":[
				0.4956822395324707,
				1.7471427917480469,
				0.9847431182861328
			],
			"min":[
				-0.4956822395324707,
				-1.7471427917480469,
				-0.9847431182861328
			],
			"type":"VEC3"
		},
		{
			"bufferView":1,
			"componentType":5126,
			"count":746,
			"type":"VEC3"
		},
		{
			"bufferView":2,
			"componentType":5126,
			"count":746,
			"type":"VEC2"
		},
		{
			"bufferView":3,
			"componentType":5123,
			"count":2268,
			"type":"SCALAR"
		},
		{
			"bufferView":4,
			"componentType":5126,
			"count":1990,
			"max":[
				0.29947423934936523,
				1.3098335266113281,
				0.5548858642578125
			],
			"min":[
				-0.29947423934936523,
				-1.3098335266113281,
				-0.5548858642578125
			],
			"type":"VEC3"
		},
		{
			"bufferView":5,
			"componentType":5126,
			"count":1990,
			"type":"VEC3"
		},
		{
			"bufferView":6,
			"componentType":5126,
			"count":1990,
			"type":"VEC2"
		},
		{
			"bufferView":7,
			"componentType":5123,
			"count":6660,
			"type":"SCALAR"
		},
		{
			"bufferView":8,
			"componentType":5126,
			"count":1990,
			"max":[
				0.29947423934936523,
				1.3098297119140625,
				0.5548858642578125
			],
			"min":[
				-0.29947423934936523,
				-1.3098297119140625,
				-0.5548858642578125
			],
			"type":"VEC3"
		},
		{
			"bufferView":9,
			"componentType":5126,
			"count":1990,
			"type":"VEC3"
		},
		{
			"bufferView":10,
			"componentType":5126,
			"count":1990,
			"type":"VEC2"
		},
		{
			"bufferView":11,
			"componentType":5126,
			"count":1990,
			"max":[
				0.29947447776794434,
				1.3098335266113281,
				0.5548858642578125
			],
			"min":[
				-0.29947447776794434,
				-1.3098335266113281,
				-0.5548858642578125
			],
			"type":"VEC3"
		},
		{
			"bufferView":12,
			"componentType":5126,
			"count":1990,
			"type":"VEC3"
		},
		{
			"bufferView":13,
			"componentType":5126,
			"count":1990,
			"type":"VEC2"
		},
		{
			"bufferView":14,
			"componentType":5126,
			"count":6608,
			"max":[
				9.427475929260254,
				40.65530014038086,
				9.427474975585938
			],
			"min":[
				-9.427475929260254,
				-4.2421743273735046e-07,
				-9.427474975585938
			],
			"type":"VEC3"
		},
		{
			"bufferView":15,
			"componentType":5126,
			"count":6608,
			"type":"VEC3"
		},
		{
			"bufferView":16,
			"componentType":5126,
			"count":6608,
			"type":"VEC2"
		},
		{
			"bufferView":17,
			"componentType":5123,
			"count":26592,
			"type":"SCALAR"
		}
	],
	"bufferViews":[
		{
			"buffer":0,
			"byteLength":8952,
			"byteOffset":0,
			"target":34962
		},
		{
			"buffer":0,
			"byteLength":8952,
			"byteOffset":8952,
			"target":34962
		},
		{
			"buffer":0,
			"byteLength":5968,
			"byteOffset":17904,
			"target":34962
		},
		{
			"buffer":0,
			"byteLength":4536,
			"byteOffset":23872,
			"target":34963
		},
		{
			"buffer":0,
			"byteLength":23880,
			"byteOffset":28408,
			"target":34962
		},
		{
			"buffer":0,
			"byteLength":23880,
			"byteOffset":52288,
			"target":34962
		},
		{
			"buffer":0,
			"byteLength":15920,
			"byteOffset":76168,
			"target":34962
		},
		{
			"buffer":0,
			"byteLength":13320,
			"byteOffset":92088,
			"target":34963
		},
		{
			"buffer":0,
			"byteLength":23880,
			"byteOffset":105408,
			"target":34962
		},
		{
			"buffer":0,
			"byteLength":23880,
			"byteOffset":129288,
			"target":34962
		},
		{
			"buffer":0,
			"byteLength":15920,
			"byteOffset":153168,
			"target":34962
		},
		{
			"buffer":0,
			"byteLength":23880,
			"byteOffset":169088,
			"target":34962
		},
		{
			"buffer":0,
			"byteLength":23880,
			"byteOffset":192968,
			"target":34962
		},
		{
			"buffer":0,
			"byteLength":15920,
			"byteOffset":216848,
			"target":34962
		},
		{
			"buffer":0,
			"byteLength":79296,
			"byteOffset":232768,
			"target":34962
		},
		{
			"buffer":0,
			"byteLength":79296,
			"byteOffset":312064,
			"target":34962
		},
		{
			"buffer":0,
			"byteLength":52864,
			"byteOffset":391360,
			"target":34962
		},
		{
			"buffer":0,
			"byteLength":53184,
			"byteOffset":444224,
			"target":34963
		}
	],
	"buffers":[
		{
			"byteLength":497408,
			"uri":"Reactor3.bin"
		}
	]
}
