{
	"asset":{
		"generator":"Khronos glTF Blender I/O v4.4.56",
		"version":"2.0"
	},
	"scene":0,
	"scenes":[
		{
			"name":"Scene",
			"nodes":[
				0
			]
		}
	],
	"nodes":[
		{
			"mesh":0,
			"name":"Reactor3"
		}
	],
	"meshes":[
		{
			"name":"Reactor3",
			"primitives":[
				{
					"attributes":{
						"POSITION":0,
						"NORMAL":1,
						"TEXCOORD_0":2
					},
					"indices":3
				}
			]
		}
	],
	"accessors":[
		{
			"bufferView":0,
			"componentType":5126,
			"count":13315,
			"max":[
				7.506157875061035,
				42.39375305175781,
				7.506156921386719
			],
			"min":[
				-7.506157875061035,
				0,
				-7.506156921386719
			],
			"type":"VEC3"
		},
		{
			"bufferView":1,
			"componentType":5126,
			"count":13315,
			"type":"VEC3"
		},
		{
			"bufferView":2,
			"componentType":5126,
			"count":13315,
			"type":"VEC2"
		},
		{
			"bufferView":3,
			"componentType":5123,
			"count":48840,
			"type":"SCALAR"
		}
	],
	"bufferViews":[
		{
			"buffer":0,
			"byteLength":159780,
			"byteOffset":0,
			"target":34962
		},
		{
			"buffer":0,
			"byteLength":159780,
			"byteOffset":159780,
			"target":34962
		},
		{
			"buffer":0,
			"byteLength":106520,
			"byteOffset":319560,
			"target":34962
		},
		{
			"buffer":0,
			"byteLength":97680,
			"byteOffset":426080,
			"target":34963
		}
	],
	"buffers":[
		{
			"byteLength":523760,
			"uri":"Reactor3.bin"
		}
	]
}
